# xmcd
#
# Track frame offsets: 
#        150
#        20526
#        39708
#        55934
#        72646
#        92139
#        109244
#        127593
#        143270
#        169985
#        188880
#        204184
#        222858
#        241961
#
# Disc length: 3434 seconds
#
# Revision: 0
# Processed by: cddbd v1.5.2PL0 Copyright (c) Steve Scherf et al.
# Submitted via: ExactAudioCopy v0.99pb4
#
DISCID=c30d680e
DTITLE=Mystical - Prince of The South... The Hits [Clean]
DYEAR=2004
DGENRE=Hip-Hop
TTITLE0=Here I Go
TTITLE1=Shake It Fast (ft. Pharrell)
TTITLE2=Danger (Been So Long) (ft. Nivea)
TTITLE3=Oochie Pop
TTITLE4=Boucin' Back (Bumpin' Me Against The Wall) (ft. Pharrell)
TTITLE5=If It Ain't Live, It Ain't Me
TTITLE6=The Man Right Chea
TTITLE7=I Smell Smoke
TTITLE8=Y'all Ain't Ready Yet
TTITLE9=Tarantula (ft. Butch Cassidy)
TTITLE10=Hypno
TTITLE11=Jump
TTITLE12=Murder 2
TTITLE13=That's The Rapper
EXTD=
EXTT0=
EXTT1=
EXTT2=
EXTT3=
EXTT4=
EXTT5=
EXTT6=
EXTT7=
EXTT8=
EXTT9=
EXTT10=
EXTT11=
EXTT12=
EXTT13=
PLAYORDER=
